<?xml version="1.0" standalone="no"?>
<!DOCTYPE svg PUBLIC "-//W3C//DTD SVG 20010904//EN"
 "http://www.w3.org/TR/2001/REC-SVG-20010904/DTD/svg10.dtd">
<svg version="1.0" xmlns="http://www.w3.org/2000/svg"
 width="418.000000pt" height="418.000000pt" viewBox="0 0 418.000000 418.000000"
 preserveAspectRatio="xMidYMid meet">
<metadata>
Created by potrace 1.11, written by Peter Selinger 2001-2013
</metadata>
<g transform="translate(0.000000,418.000000) scale(0.100000,-0.100000)"
fill="#000000" stroke="none">
<path d="M2270 4046 c-201 -84 -370 -209 -458 -337 -49 -73 -81 -180 -79 -265
l2 -71 -101 3 c-210 8 -340 -50 -398 -176 -17 -36 -21 -65 -21 -145 0 -55 4
-121 9 -146 l8 -46 -94 -63 c-317 -216 -404 -474 -240 -712 35 -51 160 -175
219 -217 39 -28 46 -30 120 -26 51 2 112 14 178 35 147 47 194 57 318 65 63 5
386 5 442 0 22 -2 76 -6 120 -9 179 -15 249 -26 420 -66 122 -29 235 -32 339
-10 149 33 243 97 293 198 23 47 27 68 27 141 0 71 -5 98 -27 155 -44 107
-111 195 -176 228 -15 7 -27 13 -29 14 -2 1 11 23 29 49 60 89 93 182 93 265
1 86 -14 125 -71 184 -58 59 -182 114 -299 131 -21 4 -49 8 -62 10 -24 4 -101
11 -217 20 -306 23 -478 147 -476 343 1 86 6 109 41 201 26 67 88 180 137 249
19 27 21 27 -47 -2z"/>
<path d="M828 1409 c-6 -4 17 -78 60 -195 39 -104 103 -277 142 -384 39 -107
92 -249 117 -315 24 -66 53 -142 63 -170 26 -71 70 -187 78 -209 8 -18 33 -19
797 -18 435 0 800 1 811 1 17 1 26 14 42 59 154 429 264 739 266 747 2 6 6 17
9 25 6 13 83 230 142 400 l22 65 -213 0 c-117 0 -214 -2 -217 -5 -2 -3 -17
-43 -34 -90 -29 -82 -265 -712 -268 -718 -4 -5 -1016 -8 -1024 -2 -4 3 -74
176 -156 385 -81 209 -153 391 -159 405 l-11 25 -228 0 c-126 0 -233 -3 -239
-6z"/>
</g>
</svg>
